<svg width="29" height="27" viewBox="0 0 29 27" fill="none" xmlns="http://www.w3.org/2000/svg">
<path fill-rule="evenodd" clip-rule="evenodd" d="M6.43345 17.356L7.39365 17.7491C7.40835 17.7551 7.42307 17.7611 7.43781 17.7671C6.39962 14.6706 6.60009 11.4471 8.10885 8.8208C9.70554 6.0414 12.6638 4.10441 16.7719 3.65841C15.2396 2.62494 13.3249 2 11.2258 2C5.95479 2 2 5.85997 2 10.2464C2 12.1255 2.70331 13.8727 3.92296 15.2826L4.69621 16.1765L4.28616 17.285L3.63877 19.035L5.57864 17.9021L6.43345 17.356ZM19.0013 5.76445C14.3291 5.65947 11.4109 7.48941 10.0165 9.91668C8.61154 12.3623 8.61117 15.6534 10.2541 18.77L10.4305 18.977C12.0964 20.9316 14.743 22.2348 17.7742 22.2348C19.1482 22.2348 20.4445 21.9668 21.6063 21.4911L22.5665 21.0979L23.4213 21.644L25.3612 22.777L24.7138 21.0269L24.3038 19.9184L25.077 19.0246C26.2967 17.6147 27 15.8674 27 13.9884C27 10.1553 24.0069 6.74696 19.7154 5.92481L19.0252 5.7926L19.0013 5.76445ZM8.58081 20.2068C8.68938 20.2307 8.79857 20.2532 8.90834 20.2743C10.9623 22.6843 14.1699 24.2348 17.7742 24.2348C19.4094 24.2348 20.963 23.9157 22.3642 23.3419C22.3734 23.3479 22.3829 23.3536 22.3925 23.3592L26.4541 25.7314L26.4718 25.7418L26.6781 25.8622L27.2454 26.1935C27.8939 26.5723 28.6599 25.9297 28.3994 25.2255L28.1711 24.6084L28.0885 24.3849L28.0813 24.3656L26.5896 20.333C28.0991 18.5881 29 16.3843 29 13.9884C29 9.05457 25.1796 4.93524 20.0917 3.96053C18.0377 1.55046 14.8301 0 11.2258 0C5.02597 0 0 4.58748 0 10.2464C0 12.6423 0.900907 14.8461 2.41038 16.5911L0.918635 20.6237L0.911495 20.643L0.828828 20.8665L0.600564 21.4835C0.340045 22.1878 1.10607 22.8304 1.7546 22.4516L2.32186 22.1203L2.52811 21.9998L2.54587 21.9894L6.60745 19.6173C6.61707 19.6117 6.62652 19.6059 6.6358 19.6C7.23956 19.8472 7.8716 20.0471 8.52627 20.1947C8.53246 20.2056 8.53867 20.2164 8.54489 20.2273L8.58081 20.2068ZM18.5225 13.9387C18.5225 14.4037 18.1456 14.7807 17.6806 14.7807C17.2156 14.7807 16.8387 14.4037 16.8387 13.9387C16.8387 13.4737 17.2156 13.0968 17.6806 13.0968C18.1456 13.0968 18.5225 13.4737 18.5225 13.9387ZM13.9387 14.7807C14.4037 14.7807 14.7806 14.4037 14.7806 13.9387C14.7806 13.4737 14.4037 13.0968 13.9387 13.0968C13.4737 13.0968 13.0967 13.4737 13.0967 13.9387C13.0967 14.4037 13.4737 14.7807 13.9387 14.7807ZM22.2645 13.9387C22.2645 14.4037 21.8875 14.7807 21.4225 14.7807C20.9575 14.7807 20.5806 14.4037 20.5806 13.9387C20.5806 13.4737 20.9575 13.0968 21.4225 13.0968C21.8875 13.0968 22.2645 13.4737 22.2645 13.9387Z" fill="currentColor"/>
</svg>
