<svg width="23" height="23" viewBox="0 0 23 23" fill="none" xmlns="http://www.w3.org/2000/svg">
<path fill-rule="evenodd" clip-rule="evenodd" d="M11.5 21C16.7467 21 21 16.7467 21 11.5C21 6.25329 16.7467 2 11.5 2C6.25329 2 2 6.25329 2 11.5C2 16.7467 6.25329 21 11.5 21ZM11.5 23C17.8513 23 23 17.8513 23 11.5C23 5.14873 17.8513 0 11.5 0C5.14873 0 0 5.14873 0 11.5C0 17.8513 5.14873 23 11.5 23ZM16.855 6.14789C16.9893 6.2833 17.0349 6.48333 16.9725 6.66356L14.2802 14.4413C14.2278 14.5926 14.1063 14.7096 13.9532 14.7561L6.64547 16.9784C6.46826 17.0323 6.27577 16.9838 6.14525 16.8523C6.01472 16.7209 5.96754 16.5281 6.02263 16.3513L8.33032 8.94387C8.37799 8.79086 8.49612 8.66997 8.648 8.61878L16.3403 6.02619C16.521 5.96527 16.7207 6.01248 16.855 6.14789ZM9.20917 9.48491L7.25836 15.7468L13.4185 13.8735L15.6942 7.2992L9.20917 9.48491ZM11.5 12.3846C11.9886 12.3846 12.3846 11.9886 12.3846 11.5C12.3846 11.0114 11.9886 10.6154 11.5 10.6154C11.0114 10.6154 10.6154 11.0114 10.6154 11.5C10.6154 11.9886 11.0114 12.3846 11.5 12.3846Z" fill="currentColor"/>
</svg>
